<svg width="1038" height="731" viewBox="0 0 1038 731" fill="none" xmlns="http://www.w3.org/2000/svg">
<path d="M21.5199 659V440.818H105.043C120.81 440.818 133.913 443.304 144.354 448.276C154.865 453.176 162.713 459.888 167.898 468.41C173.153 476.933 175.781 486.592 175.781 497.388C175.781 506.266 174.077 513.865 170.668 520.186C167.259 526.436 162.678 531.514 156.925 535.42C151.172 539.327 144.744 542.132 137.642 543.837V545.967C145.384 546.393 152.805 548.773 159.908 553.105C167.081 557.366 172.94 563.403 177.486 571.216C182.031 579.028 184.304 588.474 184.304 599.554C184.304 610.847 181.57 621.003 176.101 630.023C170.632 638.972 162.393 646.038 151.385 651.223C140.376 656.408 126.527 659 109.837 659H21.5199ZM61.044 625.974H103.551C117.898 625.974 128.232 623.24 134.553 617.771C140.945 612.232 144.141 605.129 144.141 596.464C144.141 590.001 142.543 584.178 139.347 578.993C136.151 573.737 131.605 569.618 125.71 566.635C119.815 563.581 112.784 562.054 104.616 562.054H61.044V625.974ZM61.044 533.609H100.142C106.96 533.609 113.104 532.366 118.572 529.881C124.041 527.324 128.338 523.737 131.463 519.121C134.659 514.433 136.257 508.893 136.257 502.501C136.257 494.05 133.274 487.089 127.308 481.621C121.413 476.152 112.642 473.418 100.994 473.418H61.044V533.609ZM270.361 662.196C254.381 662.196 240.532 658.68 228.813 651.649C217.094 644.618 208.003 634.781 201.54 622.139C195.148 609.497 191.952 594.724 191.952 577.821C191.952 560.918 195.148 546.109 201.54 533.396C208.003 520.683 217.094 510.811 228.813 503.78C240.532 496.749 254.381 493.233 270.361 493.233C286.341 493.233 300.191 496.749 311.909 503.78C323.628 510.811 332.684 520.683 339.076 533.396C345.539 546.109 348.77 560.918 348.77 577.821C348.77 594.724 345.539 609.497 339.076 622.139C332.684 634.781 323.628 644.618 311.909 651.649C300.191 658.68 286.341 662.196 270.361 662.196ZM270.574 631.301C279.239 631.301 286.483 628.922 292.307 624.163C298.131 619.334 302.463 612.871 305.304 604.774C308.216 596.678 309.672 587.658 309.672 577.714C309.672 567.7 308.216 558.645 305.304 550.548C302.463 542.381 298.131 535.882 292.307 531.053C286.483 526.223 279.239 523.808 270.574 523.808C261.696 523.808 254.31 526.223 248.415 531.053C242.591 535.882 238.223 542.381 235.311 550.548C232.471 558.645 231.05 567.7 231.05 577.714C231.05 587.658 232.471 596.678 235.311 604.774C238.223 612.871 242.591 619.334 248.415 624.163C254.31 628.922 261.696 631.301 270.574 631.301ZM363.503 659V495.364H400.896V522.636H402.601C405.584 513.19 410.697 505.91 417.942 500.797C425.257 495.612 433.602 493.02 442.977 493.02C445.108 493.02 447.487 493.126 450.115 493.339C452.814 493.481 455.051 493.73 456.827 494.085V529.561C455.193 528.993 452.601 528.496 449.05 528.07C445.57 527.572 442.196 527.324 438.929 527.324C431.898 527.324 425.577 528.851 419.966 531.905C414.426 534.888 410.058 539.043 406.862 544.369C403.666 549.696 402.068 555.839 402.068 562.8V659H363.503ZM530.153 662.196C513.747 662.196 499.578 658.787 487.646 651.969C475.785 645.08 466.659 635.349 460.267 622.778C453.875 610.136 450.679 595.257 450.679 578.141C450.679 561.308 453.875 546.535 460.267 533.822C466.73 521.038 475.75 511.095 487.326 503.993C498.903 496.82 512.504 493.233 528.129 493.233C538.214 493.233 547.731 494.866 556.68 498.133C565.7 501.33 573.654 506.301 580.544 513.048C587.504 519.795 592.973 528.389 596.95 538.83C600.927 549.199 602.916 561.557 602.916 575.903V587.729H468.789V561.734H565.949C565.877 554.348 564.279 547.778 561.154 542.026C558.029 536.202 553.662 531.621 548.051 528.283C542.511 524.945 536.048 523.276 528.662 523.276C520.778 523.276 513.853 525.193 507.887 529.028C501.922 532.793 497.27 537.764 493.931 543.943C490.664 550.051 488.995 556.763 488.924 564.078V586.77C488.924 596.287 490.664 604.455 494.145 611.273C497.625 618.02 502.49 623.205 508.74 626.827C514.99 630.378 522.305 632.153 530.686 632.153C536.297 632.153 541.375 631.372 545.92 629.81C550.466 628.176 554.407 625.797 557.745 622.672C561.083 619.547 563.605 615.676 565.309 611.06L601.318 615.108C599.045 624.625 594.713 632.935 588.321 640.037C582 647.068 573.903 652.537 564.031 656.443C554.159 660.278 542.866 662.196 530.153 662.196ZM664.63 662.303C654.261 662.303 644.921 660.456 636.612 656.763C628.373 652.999 621.839 647.459 617.009 640.143C612.251 632.828 609.871 623.808 609.871 613.084C609.871 603.851 611.576 596.216 614.985 590.179C618.394 584.142 623.046 579.312 628.941 575.69C634.836 572.068 641.477 569.334 648.863 567.487C656.32 565.57 664.026 564.185 671.981 563.332C681.569 562.338 689.346 561.45 695.312 560.669C701.278 559.817 705.61 558.538 708.309 556.834C711.079 555.058 712.464 552.324 712.464 548.631V547.991C712.464 539.966 710.085 533.751 705.326 529.348C700.567 524.945 693.714 522.743 684.765 522.743C675.319 522.743 667.826 524.803 662.286 528.922C656.817 533.041 653.124 537.906 651.207 543.517L615.198 538.403C618.039 528.46 622.727 520.151 629.261 513.474C635.795 506.727 643.785 501.685 653.231 498.347C662.677 494.937 673.117 493.233 684.552 493.233C692.435 493.233 700.283 494.156 708.096 496.003C715.908 497.849 723.046 500.903 729.509 505.165C735.972 509.355 741.157 515.072 745.063 522.317C749.04 529.561 751.029 538.616 751.029 549.483V659H713.955V636.521H712.677C710.333 641.067 707.031 645.328 702.769 649.305C698.579 653.212 693.288 656.372 686.896 658.787C680.575 661.131 673.153 662.303 664.63 662.303ZM674.644 633.964C682.386 633.964 689.097 632.437 694.779 629.383C700.461 626.258 704.829 622.139 707.883 617.026C711.008 611.912 712.57 606.337 712.57 600.3V581.017C711.363 582.011 709.303 582.935 706.391 583.787C703.55 584.639 700.354 585.385 696.803 586.024C693.252 586.663 689.737 587.232 686.256 587.729C682.776 588.226 679.758 588.652 677.201 589.007C671.448 589.788 666.299 591.067 661.754 592.842C657.208 594.618 653.621 597.104 650.994 600.3C648.366 603.425 647.052 607.473 647.052 612.445C647.052 619.547 649.644 624.909 654.829 628.531C660.013 632.153 666.619 633.964 674.644 633.964ZM810.373 440.818V659H771.808V440.818H810.373ZM832.03 659V495.364H870.596V659H832.03ZM851.419 472.139C845.311 472.139 840.056 470.115 835.652 466.067C831.249 461.947 829.047 457.011 829.047 451.258C829.047 445.435 831.249 440.499 835.652 436.45C840.056 432.331 845.311 430.271 851.419 430.271C857.598 430.271 862.854 432.331 867.186 436.45C871.59 440.499 873.792 445.435 873.792 451.258C873.792 457.011 871.59 461.947 867.186 466.067C862.854 470.115 857.598 472.139 851.419 472.139ZM1021.59 538.616L986.429 542.452C985.435 538.901 983.695 535.562 981.209 532.437C978.794 529.312 975.527 526.791 971.408 524.874C967.288 522.956 962.246 521.997 956.28 521.997C948.254 521.997 941.507 523.737 936.038 527.217C930.641 530.697 927.977 535.207 928.048 540.747C927.977 545.506 929.717 549.376 933.268 552.359C936.891 555.342 942.857 557.793 951.166 559.71L979.078 565.676C994.561 569.014 1006.07 574.305 1013.6 581.55C1021.19 588.794 1025.03 598.276 1025.1 609.994C1025.03 620.293 1022.01 629.383 1016.05 637.267C1010.15 645.08 1001.95 651.187 991.436 655.591C980.925 659.994 968.851 662.196 955.214 662.196C935.186 662.196 919.064 658.006 906.848 649.625C894.632 641.173 887.352 629.419 885.009 614.362L922.615 610.74C924.32 618.126 927.942 623.702 933.482 627.466C939.021 631.23 946.23 633.112 955.108 633.112C964.27 633.112 971.621 631.23 977.161 627.466C982.771 623.702 985.577 619.05 985.577 613.51C985.577 608.822 983.766 604.952 980.143 601.898C976.592 598.844 971.053 596.5 963.524 594.866L935.612 589.007C919.916 585.74 908.304 580.236 900.776 572.494C893.247 564.682 889.518 554.81 889.589 542.878C889.518 532.793 892.253 524.057 897.793 516.67C903.403 509.213 911.18 503.46 921.124 499.412C931.138 495.293 942.679 493.233 955.747 493.233C974.923 493.233 990.016 497.317 1001.02 505.484C1012.1 513.652 1018.96 524.696 1021.59 538.616Z" fill="#1DDB91"/>
<rect x="172.46" y="97.96" width="17.78" height="275.59" rx="8.89" fill="url(#paint0_linear_2_34)"/>
<rect x="234.69" y="53.51" width="17.78" height="275.59" rx="8.89" fill="url(#paint1_linear_2_34)"/>
<rect x="296.92" y="0.169945" width="17.78" height="275.59" rx="8.89" fill="url(#paint2_linear_2_34)"/>
<rect x="359.15" y="53.51" width="17.78" height="275.59" rx="8.89" fill="url(#paint3_linear_2_34)"/>
<rect x="421.38" y="97.9599" width="17.78" height="275.59" rx="8.89" fill="url(#paint4_linear_2_34)"/>
<rect x="483.61" y="142.41" width="17.78" height="275.59" rx="8.89" fill="url(#paint5_linear_2_34)"/>
<rect x="545.84" y="97.96" width="17.78" height="275.59" rx="8.89" fill="url(#paint6_linear_2_34)"/>
<rect x="608.07" y="53.5099" width="17.78" height="275.59" rx="8.89" fill="url(#paint7_linear_2_34)"/>
<rect x="670.3" y="0.169983" width="17.78" height="275.59" rx="8.89" fill="url(#paint8_linear_2_34)"/>
<rect x="732.53" y="53.5099" width="17.78" height="275.59" rx="8.89" fill="url(#paint9_linear_2_34)"/>
<rect x="794.76" y="97.9599" width="17.78" height="275.59" rx="8.89" fill="url(#paint10_linear_2_34)"/>
<rect x="856.99" y="160.19" width="17.78" height="142.24" rx="8.89" fill="url(#paint11_linear_2_34)"/>
<rect x="919.22" y="195.75" width="17.78" height="71.12" rx="8.89" fill="url(#paint12_linear_2_34)"/>
<rect x="48" y="195.75" width="17.78" height="71.12" rx="8.89" fill="url(#paint13_linear_2_34)"/>
<rect x="110.23" y="160.19" width="17.78" height="142.24" rx="8.89" fill="url(#paint14_linear_2_34)"/>
<defs>
<linearGradient id="paint0_linear_2_34" x1="181.35" y1="97.96" x2="181.35" y2="373.55" gradientUnits="userSpaceOnUse">
<stop stop-color="#0F754D" stop-opacity="0"/>
<stop offset="1" stop-color="#1DDB91"/>
</linearGradient>
<linearGradient id="paint1_linear_2_34" x1="243.58" y1="53.51" x2="243.58" y2="329.1" gradientUnits="userSpaceOnUse">
<stop stop-color="#0F754D" stop-opacity="0"/>
<stop offset="1" stop-color="#1DDB91"/>
</linearGradient>
<linearGradient id="paint2_linear_2_34" x1="305.81" y1="0.169945" x2="305.81" y2="275.76" gradientUnits="userSpaceOnUse">
<stop stop-color="#0F754D" stop-opacity="0"/>
<stop offset="1" stop-color="#1DDB91"/>
</linearGradient>
<linearGradient id="paint3_linear_2_34" x1="368.04" y1="53.51" x2="368.04" y2="329.1" gradientUnits="userSpaceOnUse">
<stop stop-color="#0F754D" stop-opacity="0"/>
<stop offset="1" stop-color="#1DDB91"/>
</linearGradient>
<linearGradient id="paint4_linear_2_34" x1="430.27" y1="97.9599" x2="430.27" y2="373.55" gradientUnits="userSpaceOnUse">
<stop stop-color="#0F754D" stop-opacity="0"/>
<stop offset="1" stop-color="#1DDB91"/>
</linearGradient>
<linearGradient id="paint5_linear_2_34" x1="492.5" y1="142.41" x2="492.5" y2="418" gradientUnits="userSpaceOnUse">
<stop stop-color="#0F754D" stop-opacity="0"/>
<stop offset="1" stop-color="#1DDB91"/>
</linearGradient>
<linearGradient id="paint6_linear_2_34" x1="554.73" y1="97.96" x2="554.73" y2="373.55" gradientUnits="userSpaceOnUse">
<stop stop-color="#0F754D" stop-opacity="0"/>
<stop offset="1" stop-color="#1DDB91"/>
</linearGradient>
<linearGradient id="paint7_linear_2_34" x1="616.96" y1="53.5099" x2="616.96" y2="329.1" gradientUnits="userSpaceOnUse">
<stop stop-color="#0F754D" stop-opacity="0"/>
<stop offset="1" stop-color="#1DDB91"/>
</linearGradient>
<linearGradient id="paint8_linear_2_34" x1="679.19" y1="0.169983" x2="679.19" y2="275.76" gradientUnits="userSpaceOnUse">
<stop stop-color="#0F754D" stop-opacity="0"/>
<stop offset="1" stop-color="#1DDB91"/>
</linearGradient>
<linearGradient id="paint9_linear_2_34" x1="741.42" y1="53.5099" x2="741.42" y2="329.1" gradientUnits="userSpaceOnUse">
<stop stop-color="#0F754D" stop-opacity="0"/>
<stop offset="1" stop-color="#1DDB91"/>
</linearGradient>
<linearGradient id="paint10_linear_2_34" x1="803.65" y1="97.9599" x2="803.65" y2="373.55" gradientUnits="userSpaceOnUse">
<stop stop-color="#0F754D" stop-opacity="0"/>
<stop offset="1" stop-color="#1DDB91"/>
</linearGradient>
<linearGradient id="paint11_linear_2_34" x1="865.88" y1="160.19" x2="865.88" y2="302.43" gradientUnits="userSpaceOnUse">
<stop stop-color="#0F754D" stop-opacity="0"/>
<stop offset="1" stop-color="#1DDB91"/>
</linearGradient>
<linearGradient id="paint12_linear_2_34" x1="928.11" y1="195.75" x2="928.11" y2="266.87" gradientUnits="userSpaceOnUse">
<stop stop-color="#0F754D" stop-opacity="0"/>
<stop offset="1" stop-color="#1DDB91"/>
</linearGradient>
<linearGradient id="paint13_linear_2_34" x1="56.89" y1="195.75" x2="56.89" y2="266.87" gradientUnits="userSpaceOnUse">
<stop stop-color="#0F754D" stop-opacity="0"/>
<stop offset="1" stop-color="#1DDB91"/>
</linearGradient>
<linearGradient id="paint14_linear_2_34" x1="119.12" y1="160.19" x2="119.12" y2="302.43" gradientUnits="userSpaceOnUse">
<stop stop-color="#0F754D" stop-opacity="0"/>
<stop offset="1" stop-color="#1DDB91"/>
</linearGradient>
</defs>
</svg>
